# xmcd
#
# Track frame offsets:
#       150
#       9934
#       24825
#       41530
#       55143
#       65216
#       84841
#       99073
#       110084
#       121216
#       136495
#       154506
#       167696
#       178097
#       189212
#       199799
#       208741
#       229189
#       240124
#       252253
#       258245
#       267604
#       277055
#       288687
#       302047
#
# Disc length: 4135 seconds
#
# Revision: 1
# Processed by: cddbd v1.5.1PL0 Copyright (c) Steve Scherf et al.
# Submitted via: MusiCat 1.1
#
DISCID=57102519
DTITLE=Jacinto Luis Cortez - Piano Brasileiro Vol. 1
DYEAR=1900
DGENRE=
TTITLE0=A bicicleta
TTITLE1=Aí, que saudade da Amélia
TTITLE2=Ana Maria
TTITLE3=Andar com fé
TTITLE4=Cantores do rádio
TTITLE5=Com que roupa
TTITLE6=Escrito nas estrelas
TTITLE7=Feira de Mangaio
TTITLE8=Felicidade
TTITLE9=Iracema
TTITLE10=Judiaria
TTITLE11=Mand'ela
TTITLE12=Maria vai com as outras
TTITLE13=Noites cariocas
TTITLE14=O caderno
TTITLE15=Meu pai oxalá
TTITLE16=Paralelas
TTITLE17=Pastorinhas
TTITLE18=Kikiô
TTITLE19=Aquele abraço
TTITLE20=Sá Marina
TTITLE21=Samba do aprouch
TTITLE22=Saudosa maloca
TTITLE23=Trem das onze
TTITLE24=Valsinha
EXTD=\n\n
EXTT0=
EXTT1=
EXTT2=
EXTT3=
EXTT4=
EXTT5=
EXTT6=
EXTT7=
EXTT8=
EXTT9=
EXTT10=
EXTT11=
EXTT12=
EXTT13=
EXTT14=
EXTT15=
EXTT16=
EXTT17=
EXTT18=
EXTT19=
EXTT20=
EXTT21=
EXTT22=
EXTT23=
EXTT24=
PLAYORDER=
